# xmcd
#
# Track frame offsets: 
#        150
#        20475
#        39050
#        59195
#        84600
#        101475
#        122425
#        144270
#        162930
#        185620
#        207847
#        228700
#
# Disc length: 3341 seconds
#
# Revision: 1
# Processed by: cddbd v1.5.2PL0 Copyright (c) Steve Scherf et al.
# Submitted via: ExactAudioCopy v1.3
#
DISCID=9e0d0b0c
DTITLE=??? - ?????
DYEAR=1995
DGENRE=????
TTITLE0=??????
TTITLE1=?????
TTITLE2=???
TTITLE3=????
TTITLE4=???? ????
TTITLE5=????
TTITLE6=?????????
TTITLE7=??? ???
TTITLE8=????
TTITLE9=??
TTITLE10=??????
TTITLE11=???????
EXTD=YEAR: 1995
EXTT0=
EXTT1=
EXTT2=
EXTT3=
EXTT4=
EXTT5=
EXTT6=
EXTT7=
EXTT8=
EXTT9=
EXTT10=
EXTT11=
PLAYORDER=
